<?xml version="1.0" standalone="no"?>
<!DOCTYPE svg PUBLIC "-//W3C//DTD SVG 1.1//EN" "http://www.w3.org/Graphics/SVG/1.1/DTD/svg11.dtd" >
<svg xmlns="http://www.w3.org/2000/svg" xmlns:xlink="http://www.w3.org/1999/xlink" version="1.1">
<metadata></metadata>
<defs>
<font id="muller_narrowextrabold" horiz-adv-x="1263" >
<font-face units-per-em="2048" ascent="1638" descent="-410" />
<missing-glyph horiz-adv-x="315" />
<glyph horiz-adv-x="0" />
<glyph horiz-adv-x="682" />
<glyph unicode=" "  horiz-adv-x="315" />
<glyph unicode="&#x09;" horiz-adv-x="315" />
<glyph unicode="&#xa0;" horiz-adv-x="315" />
<glyph unicode="!" horiz-adv-x="538" d="M84 158q0 89 54 135.5t130 46.5q78 0 132.5 -46.5t54.5 -135.5q0 -90 -55 -137.5t-132 -47.5q-76 0 -130 47.5t-54 137.5zM86 1434h367l-33 -936h-301z" />
<glyph unicode="&#x22;" horiz-adv-x="837" d="M78 891v543h307l-41 -543h-266zM473 891v543h307l-41 -543h-266z" />
<glyph unicode="#" horiz-adv-x="1296" d="M45 307v258h180l51 264h-129v258h179l59 308h305l-59 -308h186l60 308h307l-60 -308h117l14 -258h-180l-51 -264h129v-258h-180l-58 -307h-307l60 307h-187l-59 -307h-305l59 307h-131zM530 565h187l51 264h-186z" />
<glyph unicode="$" horiz-adv-x="1034" d="M53 993q0 166 88 269t230 141v244h301v-238q100 -14 241 -86v-344q-174 115 -348 115q-151 0 -151 -101q0 -34 32 -61t83.5 -48t113 -43.5t123.5 -57.5t113.5 -81.5t83.5 -122.5t32 -173q0 -174 -89 -277.5t-234 -138.5v-244h-301v234q-170 19 -297 81v357 q84 -51 188.5 -81t192.5 -30q174 0 174 105q0 36 -32 62.5t-82.5 46.5t-112 41.5t-123 55.5t-112 79.5t-82.5 121.5t-32 174z" />
<glyph unicode="%" horiz-adv-x="1544" d="M39 1090q0 170 97 264t253 94q153 0 250.5 -94.5t97.5 -263.5q0 -170 -97.5 -264.5t-250.5 -94.5q-156 0 -253 94.5t-97 264.5zM217 0l899 1434h211l-899 -1434h-211zM307 1090q0 -55 20.5 -87t61.5 -32q40 0 60 32t20 87t-20 86.5t-60 31.5q-41 0 -61.5 -31.5 t-20.5 -86.5zM807 344q0 169 97.5 263.5t250.5 94.5q155 0 252.5 -94t97.5 -264t-97.5 -264t-252.5 -94q-153 0 -250.5 94.5t-97.5 263.5zM1075 344q0 -119 80 -119t80 119t-80 119t-80 -119z" />
<glyph unicode="&#x26;" horiz-adv-x="1296" d="M37 354q0 235 242 410q-65 78 -102.5 152.5t-37.5 162.5q0 161 120 272t321 111q175 0 286 -100.5t111 -259.5q0 -227 -275 -408l166 -192q39 91 39 200h324q0 -110 -39 -226.5t-113 -217.5l224 -258h-363l-68 78q-165 -107 -378 -107q-216 0 -336.5 106t-120.5 277z M377 391q0 -60 41 -94.5t114 -34.5q81 0 142 45l-209 240q-43 -38 -65.5 -74t-22.5 -82zM461 1069q0 -75 67 -164q125 84 125 174q0 46 -23 72.5t-63 26.5q-54 0 -80 -32.5t-26 -76.5z" />
<glyph unicode="'" horiz-adv-x="452" d="M78 891v543h321l-55 -543h-266z" />
<glyph unicode="(" horiz-adv-x="618" d="M55 614q0 259 78 509t201 433h278q-101 -198 -158 -446t-57 -496t57 -496t158 -446h-278q-123 183 -201 433t-78 509z" />
<glyph unicode=")" horiz-adv-x="616" d="M4 -328q101 198 158 446t57 496t-57 496t-158 446h277q124 -182 202 -432t78 -510t-78 -510t-202 -432h-277z" />
<glyph unicode="*" horiz-adv-x="755" d="M43 1104l82 217l160 -80l-25 193h236l-25 -193l162 80l82 -217l-191 -41l140 -145l-189 -136l-96 174l-96 -174l-191 136l139 145z" />
<glyph unicode="+" horiz-adv-x="962" d="M49 571v291h287v289h291v-289h288v-291h-288v-286h-291v286h-287z" />
<glyph unicode="," horiz-adv-x="479" d="M53 -311l29 571h338l-101 -571h-266z" />
<glyph unicode="-" horiz-adv-x="739" d="M84 352v291h571v-291h-571z" />
<glyph unicode="." horiz-adv-x="473" d="M51 158q0 89 54.5 135.5t130.5 46.5q77 0 131.5 -46.5t54.5 -135.5q0 -90 -54.5 -137.5t-131.5 -47.5q-76 0 -130.5 48t-54.5 137z" />
<glyph unicode="/" horiz-adv-x="804" d="M31 -121l493 1675h248l-491 -1675h-250z" />
<glyph unicode="0" horiz-adv-x="1189" d="M61 696q0 350 134 537.5t399 187.5q266 0 399 -187.5t133 -537.5t-133 -537.5t-399 -187.5q-265 0 -399 187.5t-134 537.5zM430 696q0 -192 38.5 -283t125.5 -91q89 0 127.5 91t38.5 283t-38.5 283.5t-127.5 91.5q-87 0 -125.5 -91.5t-38.5 -283.5z" />
<glyph unicode="1" horiz-adv-x="870" d="M74 0v336h217v665l-217 -94v357l297 129h274v-1057h199v-336h-770z" />
<glyph unicode="2" horiz-adv-x="1001" d="M57 0v205q0 77 19.5 146.5t41 113.5t71 98t74 75t84.5 70q4 4 6 5.5t5.5 4.5t6.5 5q52 43 80 67.5t59 58t44 63.5t13 63q0 48 -36.5 76t-92.5 28q-152 0 -336 -116v354q189 104 393 104q70 0 134.5 -16.5t120.5 -51.5t97.5 -85t65 -120.5t23.5 -154.5q0 -119 -45.5 -205 t-130.5 -167q-45 -44 -125.5 -107.5t-120.5 -104t-41 -73.5h465v-336h-875z" />
<glyph unicode="3" horiz-adv-x="997" d="M72 25v342q137 -48 297 -45q95 0 152 32t57 95q0 110 -138 110h-192v313h162q56 0 92.5 28t36.5 77q0 50 -40 80t-122 30q-153 0 -303 -61v328q162 67 356 67q129 0 231.5 -42.5t166 -131t63.5 -211.5q0 -101 -45 -179.5t-121 -119.5q95 -35 157 -124.5t62 -225.5 q0 -87 -30 -158t-80.5 -118t-118 -79.5t-139.5 -46.5t-148 -14q-194 0 -356 54z" />
<glyph unicode="4" horiz-adv-x="1140" d="M35 207v297l581 889h338v-867h140v-325h-138v-201h-329v207h-592zM375 512h256v395z" />
<glyph unicode="5" horiz-adv-x="1001" d="M68 16v336q139 -47 311 -47q101 0 154 37.5t53 110.5q0 72 -63.5 106.5t-170.5 34.5q-128 0 -254 -29l45 828h748v-328h-416l-10 -188q80 0 158 -17q151 -26 241 -127.5t90 -281.5q0 -99 -30.5 -180.5t-82 -136t-120 -92t-142 -54.5t-151.5 -17q-206 0 -360 45z" />
<glyph unicode="6" horiz-adv-x="1110" d="M59 653q0 160 32.5 290t88.5 218t133.5 147.5t165 86t185.5 26.5q93 0 157.5 -14t151.5 -53v-322q-116 55 -242 55q-121 0 -191 -59.5t-98 -185.5q92 53 222 53q175 3 289 -112t114 -330q0 -225 -130.5 -353.5t-330.5 -128.5q-115 0 -207 34t-155 95t-105 147t-61 187 t-19 219zM424 559q9 -135 49.5 -197.5t118.5 -62.5q68 0 101.5 44t33.5 114q0 155 -137 155q-86 0 -166 -53z" />
<glyph unicode="7" horiz-adv-x="942" d="M31 1057v336h878v-254l-362 -1139h-375l342 1057h-483z" />
<glyph unicode="8" horiz-adv-x="1138" d="M53 379q0 110 54.5 201.5t138.5 154.5q-148 120 -148 303q0 74 29 141.5t84.5 122t148 87t209.5 32.5q116 0 207.5 -31.5t148 -86t86 -123t29.5 -146.5q0 -92 -39.5 -166t-113.5 -145q196 -120 196 -344q0 -78 -29.5 -149t-89 -130t-161.5 -94t-234 -35 q-131 0 -232.5 34.5t-162 93t-91 130t-30.5 150.5zM414 418q0 -59 41 -96t114 -37q75 0 115.5 32.5t40.5 88.5q0 29 -16 54.5t-46.5 46.5t-64 38.5t-78.5 38.5q-12 5 -18 8q-88 -85 -88 -174zM436 1004q0 -31 14.5 -56t46.5 -46t61.5 -34.5t78.5 -33.5q68 78 68 153 q0 55 -34.5 88t-101.5 33q-64 0 -98.5 -29t-34.5 -75z" />
<glyph unicode="9" horiz-adv-x="1107" d="M43 940q0 225 129.5 353t331.5 128q115 0 206.5 -34t154.5 -95t104.5 -147t60.5 -187t19 -219q0 -160 -32 -289.5t-87.5 -217.5t-132 -147.5t-162.5 -86.5t-182 -27q-94 0 -158.5 14.5t-151.5 55.5v319q122 -55 242 -55q117 0 186 60t97 186q-95 -53 -224 -53 q-174 -3 -287.5 112t-113.5 330zM381 936q0 -77 36 -116.5t103 -39.5q84 0 166 54q-9 135 -49.5 197.5t-118.5 62.5q-68 0 -102.5 -44.5t-34.5 -113.5z" />
<glyph unicode=":" horiz-adv-x="509" d="M70 158q0 89 54 135.5t130 46.5q77 0 131.5 -46.5t54.5 -135.5q0 -90 -54.5 -137.5t-131.5 -47.5q-76 0 -130 47.5t-54 137.5zM70 766q0 88 54 135t130 47q77 0 131.5 -47t54.5 -135q0 -91 -54.5 -138.5t-131.5 -47.5q-76 0 -130 47.5t-54 138.5z" />
<glyph unicode=";" horiz-adv-x="532" d="M80 -311l26 571h340l-100 -571h-266zM82 801q0 90 54.5 137t131.5 47t131 -47t54 -137t-54 -137.5t-131 -47.5t-131.5 47.5t-54.5 137.5z" />
<glyph unicode="&#x3c;" horiz-adv-x="833" d="M47 557v322l690 292v-321l-381 -133l381 -133v-322z" />
<glyph unicode="=" horiz-adv-x="940" d="M100 352v297h742v-297h-742zM100 784v297h742v-297h-742z" />
<glyph unicode="&#x3e;" horiz-adv-x="833" d="M96 262v322l381 133l-381 133v321l690 -292v-322z" />
<glyph unicode="?" horiz-adv-x="866" d="M49 1024v338q93 52 173 76t186 24q63 0 122 -12.5t114 -40t95.5 -67.5t65 -99.5t24.5 -132.5q0 -80 -28.5 -156.5t-69 -135t-81 -113.5t-69 -114.5t-28.5 -115.5h-307q0 76 22 145.5t54 120t63.5 96.5t53.5 94.5t22 94.5q0 49 -34.5 74.5t-98.5 25.5q-65 0 -140.5 -28.5 t-138.5 -73.5zM215 158q0 89 54 135.5t130 46.5q78 0 132.5 -46.5t54.5 -135.5q0 -90 -55 -137.5t-132 -47.5q-76 0 -130 47.5t-54 137.5z" />
<glyph unicode="@" horiz-adv-x="1886" d="M45 492q0 150 38 292t115.5 265t185 215t257 145t322.5 53q127 0 239.5 -28.5t199 -78.5t158 -118.5t121 -147.5t83.5 -167t49.5 -175.5t15.5 -173.5q0 -278 -114.5 -419.5t-330.5 -141.5q-107 0 -188 46.5t-123 127.5q-47 -66 -98.5 -95.5t-126.5 -29.5 q-103 0 -176.5 60t-106.5 154.5t-33 211.5t33 211.5t106.5 154.5t176.5 60q129 0 209 -106v82h282v-516q0 -103 78 -103q33 0 54.5 20.5t31.5 65t13.5 93t3.5 124.5q0 115 -33.5 218t-99 187.5t-175 134.5t-249.5 50q-181 0 -320 -88.5t-213 -240.5t-74 -342 q0 -314 169 -492t460 -178q230 0 432 57v-278q-205 -78 -440 -78q-195 0 -363 62.5t-295.5 181t-200.5 305t-73 420.5zM840 487q0 -85 26 -129.5t74 -44.5q32 0 51.5 14t40.5 42v237q-20 28 -40 42t-52 14q-48 0 -74 -45t-26 -130z" />
<glyph unicode="A" horiz-adv-x="1249" d="M-8 0l454 1434h357l454 -1434h-368l-60 215h-407l-60 -215h-370zM494 506h262l-68 246q-42 158 -63 309q-22 -159 -62 -309z" />
<glyph unicode="B" horiz-adv-x="1193" d="M100 0v1434h588q189 0 302.5 -98.5t113.5 -268.5q0 -215 -158 -309q85 -40 147 -129t62 -223q0 -105 -41.5 -186t-111.5 -127.5t-152.5 -69.5t-173.5 -23h-576zM455 297h176q72 0 118 33.5t46 113.5q0 78 -45 113t-113 35h-182v-295zM455 864h170q61 0 97 36.5t36 100.5 q0 70 -37 105t-105 35h-161v-277z" />
<glyph unicode="C" horiz-adv-x="1030" d="M47 707q1 179 51.5 323.5t138.5 238t205 143.5t254 50q135 0 273 -55v-342q-86 47 -221 47q-151 0 -241.5 -104.5t-90.5 -300.5q0 -190 85 -289t236 -99q118 0 242 54v-350q-136 -52 -285 -52q-106 0 -201 28t-177 87t-141.5 144.5t-93.5 207.5t-34 269z" />
<glyph unicode="D" horiz-adv-x="1230" d="M100 0v1434h469q132 0 236 -36.5t173.5 -100t115.5 -155t66 -196.5t20 -229t-20 -229t-66 -196.5t-115.5 -155t-173.5 -100t-236 -36.5h-469zM455 336h114q132 0 194 89t62 292t-62 292t-194 89h-114v-762z" />
<glyph unicode="E" horiz-adv-x="1019" d="M100 0v1434h846v-316h-491v-244h444v-307h-444v-248h503v-319h-858z" />
<glyph unicode="F" horiz-adv-x="1011" d="M100 0v1434h858v-336h-503v-262h465v-336h-465v-500h-355z" />
<glyph unicode="G" horiz-adv-x="1146" d="M47 705q0 175 51.5 318t143 239t217.5 148t274 52q160 0 309 -57v-336q-122 49 -266 49q-165 0 -262.5 -108.5t-97.5 -311.5q0 -169 53 -260t143 -114q29 -7 58.5 -7t60.5 7v456h344v-717q-162 -92 -387 -92q-104 0 -196.5 25.5t-175 82t-141.5 140.5t-93.5 208.5 t-34.5 277.5z" />
<glyph unicode="H" horiz-adv-x="1239" d="M100 0v1434h355v-549h329v549h353v-1434h-353v549h-329v-549h-355z" />
<glyph unicode="I" horiz-adv-x="555" d="M100 0v1434h355v-1434h-355z" />
<glyph unicode="J" horiz-adv-x="890" d="M39 20v330q91 -43 215 -43q92 0 141 45t49 150v596h-276v336h629v-1014q0 -97 -25.5 -174t-68.5 -127.5t-103 -84.5t-125.5 -48.5t-138.5 -14.5q-164 0 -297 49z" />
<glyph unicode="K" horiz-adv-x="1189" d="M100 0v1434h355v-562h88l235 562h410l-338 -717l350 -717h-409l-246 559h-90v-559h-355z" />
<glyph unicode="L" horiz-adv-x="968" d="M100 0v1434h355v-1098h489v-336h-844z" />
<glyph unicode="M" horiz-adv-x="1486" d="M100 0v1434h306l337 -639l338 639h305v-1434h-346v424q0 200 35 405l-270 -516h-121l-270 516q32 -188 32 -405v-424h-346z" />
<glyph unicode="N" horiz-adv-x="1267" d="M100 0v1434h322l424 -811q-33 200 -33 374v437h352v-1434h-319l-426 811q35 -184 35 -375v-436h-355z" />
<glyph unicode="O" d="M51 717q0 170 34 304.5t103 234t181.5 153t261.5 53.5t261 -53.5t181 -153t103 -234t34 -304.5q0 -169 -34 -303.5t-103 -234.5t-181 -154t-261 -54t-261.5 54t-181.5 154t-103 234.5t-34 303.5zM420 717q0 -201 51.5 -298t159.5 -97q110 0 161.5 97t51.5 298t-51.5 298 t-161.5 97q-108 0 -159.5 -97t-51.5 -298z" />
<glyph unicode="P" horiz-adv-x="1157" d="M100 0v1434h529q105 0 193.5 -30.5t156 -90t105.5 -156t38 -221.5t-38 -221.5t-105.5 -156t-156 -90t-193.5 -30.5h-174v-438h-355zM455 760h143q81 0 125.5 46t44.5 130q0 85 -43.5 130.5t-126.5 45.5h-143v-352z" />
<glyph unicode="Q" d="M59 717q0 170 34 304.5t103 234t181.5 153t261.5 53.5t261.5 -53.5t181.5 -153t103 -234t34 -304.5q0 -345 -138 -537l133 -180l-276 -199l-145 197q-71 -27 -154 -27q-149 0 -261.5 54t-181.5 154t-103 234.5t-34 303.5zM428 717q0 -201 51.5 -298t159.5 -97t160.5 97.5 t52.5 297.5t-52.5 297.5t-160.5 97.5t-159.5 -97t-51.5 -298z" />
<glyph unicode="R" horiz-adv-x="1202" d="M100 0v1434h533q105 0 195.5 -30.5t160.5 -89t110 -152t40 -212.5q0 -151 -57.5 -258.5t-163.5 -163.5l268 -528h-383l-228 467h-120v-467h-355zM455 782h163q76 0 121 42.5t45 119.5t-45 119.5t-121 42.5h-163v-324z" />
<glyph unicode="S" horiz-adv-x="1075" d="M47 1022q0 112 40 198.5t110.5 138t159.5 77.5t194 26q117 0 209 -24t188 -76v-344q-199 117 -373 117q-167 0 -167 -107q0 -37 35 -66t90.5 -51.5t123 -47.5t135 -61.5t123 -84.5t90.5 -126.5t35 -178.5q0 -115 -43 -202.5t-116.5 -138t-163 -75.5t-191.5 -25 q-243 0 -440 92v359q85 -53 193 -84t210 -31q183 0 183 111q0 39 -34.5 68.5t-89.5 51.5t-122 45.5t-133.5 58.5t-121.5 81.5t-89.5 123t-34.5 175.5z" />
<glyph unicode="T" horiz-adv-x="1052" d="M23 1098v336h1007v-336h-328v-1098h-352v1098h-327z" />
<glyph unicode="U" horiz-adv-x="1247" d="M90 459v975h354v-945q0 -95 45 -138.5t134 -43.5q90 0 135 43.5t45 138.5v945h352v-975q0 -245 -140 -366.5t-392 -121.5q-251 0 -392 121.5t-141 366.5z" />
<glyph unicode="V" horiz-adv-x="1222" d="M0 1434h377l182 -752q30 -137 53 -307q18 151 52 307l182 752h377l-418 -1434h-387z" />
<glyph unicode="W" horiz-adv-x="1720" d="M4 1434h381l150 -887l206 880h240l205 -880l149 887h383l-348 -1434h-334l-176 748l-176 -748h-334z" />
<glyph unicode="X" horiz-adv-x="1187" d="M-20 0l380 737l-350 697h387l197 -430l197 430h387l-353 -697l383 -737h-395l-219 463l-219 -463h-395z" />
<glyph unicode="Y" horiz-adv-x="1202" d="M-2 1434h385l219 -539l217 539h387l-428 -891v-543h-352v543z" />
<glyph unicode="Z" horiz-adv-x="1028" d="M37 0v225l483 873h-457v336h906v-226l-482 -864h500v-344h-950z" />
<glyph unicode="[" horiz-adv-x="661" d="M113 -328v1884h501v-307h-178v-1269h178v-308h-501z" />
<glyph unicode="\" horiz-adv-x="804" d="M31 1554h250l493 -1675h-250z" />
<glyph unicode="]" horiz-adv-x="661" d="M49 -20h176v1269h-176v307h502v-1884h-502v308z" />
<glyph unicode="^" horiz-adv-x="1062" d="M41 692l319 742h345l317 -742h-354l-136 402l-137 -402h-354z" />
<glyph unicode="_" horiz-adv-x="806" d="M0 -111h807v-290h-807v290z" />
<glyph unicode="`" horiz-adv-x="653" d="M61 1862h359l172 -314h-309z" />
<glyph unicode="a" horiz-adv-x="974" d="M35 281q0 150 99.5 230.5t266.5 80.5q71 0 148 -19v43q0 119 -152 119q-154 0 -301 -59v276q171 60 336 60q219 0 333 -95.5t114 -320.5v-307q0 -62 55 -62q13 0 33 4v-225q-80 -22 -160 -22q-132 0 -197 71q-103 -84 -260 -84q-135 0 -225 80t-90 230zM354 287 q0 -54 26 -79.5t66 -25.5q63 0 103 37v170q-42 10 -72 10q-123 0 -123 -112z" />
<glyph unicode="b" horiz-adv-x="1026" d="M80 0v1434h336v-519q86 97 221 97q171 0 255.5 -139t84.5 -381q0 -84 -10.5 -157t-36 -141t-64.5 -116.5t-100 -77.5t-139 -29q-87 0 -149 37t-95 88v-96h-303zM416 336q42 -76 112 -76q64 0 91.5 57t27.5 175t-27.5 174.5t-91.5 56.5q-70 0 -112 -76v-311z" />
<glyph unicode="c" horiz-adv-x="804" d="M43 479q0 128 37 230.5t103 168t153.5 100t191.5 34.5q126 0 217 -43v-275q-72 35 -159 35q-93 0 -149 -61.5t-56 -175.5q0 -113 53.5 -172.5t143.5 -59.5q98 0 178 39v-287q-96 -41 -244 -41q-97 0 -181.5 32.5t-149 94.5t-101.5 160t-37 221z" />
<glyph unicode="d" horiz-adv-x="1026" d="M49 492q0 242 84.5 381t255.5 139q135 0 221 -97v519h336v-1434h-303v96q-33 -51 -94.5 -88t-149.5 -37q-78 0 -139 29t-100 77.5t-64.5 116.5t-36 141t-10.5 157zM379 492q0 -118 27.5 -175t91.5 -57q70 0 112 76v311q-42 76 -112 76q-64 0 -91.5 -56.5t-27.5 -174.5z " />
<glyph unicode="e" horiz-adv-x="964" d="M45 492q0 245 119.5 382.5t333.5 137.5t331 -166q97 -138 97 -374q0 -48 -4 -101h-529q20 -81 75 -117.5t148 -36.5q134 0 248 43v-235q-123 -54 -299 -54q-248 0 -384 137t-136 384zM379 573h235q-2 87 -27.5 131t-80.5 44q-115 0 -127 -175z" />
<glyph unicode="f" horiz-adv-x="696" d="M35 694v289h121v109q0 84 22 149.5t57 106t84 67t98.5 37t104.5 10.5q110 0 193 -35v-272q-49 19 -103 19q-120 0 -120 -103v-88h182v-289h-182v-694h-336v694h-121z" />
<glyph unicode="g" horiz-adv-x="1026" d="M49 492q0 106 17.5 194.5t56 164t108.5 118.5t166 43q89 0 150.5 -36.5t95.5 -90.5v98h303v-995q0 -219 -131.5 -343t-380.5 -124q-187 0 -305 53v279q111 -43 254 -43q227 0 227 178v80q-90 -97 -221 -97q-172 0 -256 139.5t-84 381.5zM379 492q0 -118 27.5 -175 t91.5 -57q70 0 112 76v311q-40 76 -112 76q-64 0 -91.5 -56.5t-27.5 -174.5z" />
<glyph unicode="h" horiz-adv-x="1013" d="M80 0v1434h336v-506q91 84 229 84q56 0 107.5 -19.5t94 -56.5t68 -97t25.5 -134v-705h-336v621q0 79 -78 79q-66 0 -110 -69v-631h-336z" />
<glyph unicode="i" horiz-adv-x="497" d="M59 1288q0 90 54.5 135t136.5 45q81 0 134.5 -45t53.5 -135t-53.5 -137t-134.5 -47t-136 47t-55 137zM82 0v983h336v-983h-336z" />
<glyph unicode="j" horiz-adv-x="507" d="M-82 -180q38 -10 72 -10q49 0 74.5 25t25.5 81v1067h336v-1120q0 -173 -94.5 -257.5t-243.5 -84.5q-105 0 -170 26v273zM68 1288q0 90 54 135t136 45q83 0 137 -45t54 -135t-54.5 -137t-136.5 -47q-81 0 -135.5 47t-54.5 137z" />
<glyph unicode="k" horiz-adv-x="1011" d="M80 0v1434h336v-801h73l152 350h373l-250 -489l260 -494h-375l-162 344h-71v-344h-336z" />
<glyph unicode="l" horiz-adv-x="497" d="M82 0v1495h336v-1495h-336z" />
<glyph unicode="m" horiz-adv-x="1486" d="M80 0v983h303v-88q40 51 104.5 84t145.5 33q150 0 227 -115q106 115 264 115q142 0 215.5 -87t73.5 -223v-702h-328v621q0 79 -71 79q-58 0 -103 -61v-639h-329v621q0 79 -70 79q-57 0 -102 -63v-637h-330z" />
<glyph unicode="n" horiz-adv-x="1013" d="M80 0v983h303v-88q98 117 262 117q56 0 107.5 -19.5t94 -56.5t68 -97t25.5 -134v-705h-336v621q0 79 -78 79q-66 0 -110 -69v-631h-336z" />
<glyph unicode="o" horiz-adv-x="1011" d="M45 492q0 243 120.5 381.5t340.5 138.5t339.5 -137.5t119.5 -382.5q0 -244 -120 -382.5t-339 -138.5t-340 138.5t-121 382.5zM383 492q0 -121 28.5 -176.5t94.5 -55.5t94.5 55.5t28.5 176.5t-28.5 177t-94.5 56t-94.5 -56t-28.5 -177z" />
<glyph unicode="p" horiz-adv-x="1026" d="M80 -451v1434h303v-96q33 51 95 88t149 37q78 0 139 -29t100 -77t64.5 -116t36 -141t10.5 -157q0 -158 -35 -272.5t-112.5 -181.5t-192.5 -67q-135 0 -221 97v-519h-336zM416 336q42 -76 112 -76q64 0 91.5 57t27.5 175t-27.5 174.5t-91.5 56.5q-70 0 -112 -76v-311z" />
<glyph unicode="q" horiz-adv-x="1026" d="M49 492q0 84 10.5 157t36 141t64.5 116t100 77t139 29q88 0 149.5 -37t94.5 -88v96h303v-1434h-336v519q-86 -97 -221 -97q-115 0 -192.5 67t-112.5 181.5t-35 272.5zM379 492q0 -118 27.5 -175t91.5 -57q70 0 112 76v311q-42 76 -112 76q-64 0 -91.5 -56.5t-27.5 -174.5 z" />
<glyph unicode="r" horiz-adv-x="706" d="M80 0v983h303v-137q76 160 262 159q19 0 39 -1v-342q-26 3 -49 3q-152 0 -219 -139v-526h-336z" />
<glyph unicode="s" horiz-adv-x="856" d="M53 698q0 145 102.5 229.5t297.5 84.5q160 0 299 -62v-266q-125 70 -250 70q-113 0 -113 -62q0 -23 23.5 -40.5t61.5 -30t83.5 -27t91 -38t83.5 -55.5t61.5 -86.5t23.5 -125.5q0 -82 -32 -145t-87 -100q-56 -38 -124 -56q-65 -18 -138 -17h-8q-233 3 -365 72v281 q59 -37 138 -58.5t157 -21.5q123 0 123 59q0 22 -23.5 38.5t-61.5 29t-83.5 26t-91 36.5t-83.5 54.5t-61.5 86t-23.5 124.5z" />
<glyph unicode="t" horiz-adv-x="724" d="M27 694v289h123v229l335 78v-307h195v-289h-195v-325q0 -57 23 -83t74 -26q52 0 98 21v-275q-77 -35 -199 -35q-45 0 -87.5 8.5t-88 32t-79 59.5t-55 97t-21.5 139v387h-123z" />
<glyph unicode="u" horiz-adv-x="1013" d="M74 279v704h336v-621q0 -79 77 -79q67 0 111 69v631h336v-983h-303v90q-97 -119 -262 -119q-55 0 -106.5 20t-94 57t-68.5 97t-26 134z" />
<glyph unicode="v" horiz-adv-x="1019" d="M4 983h371l100 -436q22 -106 35 -242q11 119 37 242l100 436h369l-336 -983h-338z" />
<glyph unicode="w" horiz-adv-x="1415" d="M10 983h357l92 -565l123 565h252l122 -565l93 565h356l-262 -983h-324l-110 502l-113 -502h-324z" />
<glyph unicode="x" horiz-adv-x="983" d="M2 0l254 502l-242 481h365l86 -215l11 -41q11 -41 16 -63q11 52 28 104l86 215h363l-242 -481l254 -502h-371l-80 197q-22 60 -38 127q-14 -58 -39 -127l-80 -197h-371z" />
<glyph unicode="y" horiz-adv-x="1028" d="M-2 983h367l161 -565l127 565h369l-350 -1100q-60 -191 -180 -280q-97 -69 -225 -69q-61 0 -128 15v275q16 -3 32 -3q31 0 60 11q56 14 97 68q29 34 51 88z" />
<glyph unicode="z" horiz-adv-x="837" d="M47 0v229l320 471h-301v283h706v-240l-309 -454h328v-289h-744z" />
<glyph unicode="{" horiz-adv-x="708" d="M20 461v307q41 0 63.5 3t46 15t33 38.5t9.5 70.5v369q0 176 134 258.5t351 33.5v-307q-91 15 -126 -18t-35 -125v-266q0 -102 -51.5 -162.5t-112.5 -63.5q62 -3 113 -63t51 -162v-266q0 -92 35 -125t126 -18v-308q-216 -49 -350.5 34t-134.5 259v369q0 43 -10 69.5 t-32.5 38.5t-46 15.5t-63.5 3.5z" />
<glyph unicode="|" horiz-adv-x="575" d="M113 -205v1864h352v-1864h-352z" />
<glyph unicode="}" horiz-adv-x="708" d="M51 -20q91 -15 125.5 17.5t34.5 125.5v266q0 102 52 162t112 63q-60 3 -112 63.5t-52 162.5v266q0 93 -34.5 125.5t-125.5 17.5v307q215 49 349.5 -33.5t134.5 -258.5v-369q0 -44 10 -70.5t33 -38.5t45.5 -15t62.5 -3v-307q-40 0 -62.5 -3.5t-45.5 -15.5t-33 -38.5 t-10 -69.5v-369q0 -176 -134.5 -259t-349.5 -34v308z" />
<glyph unicode="~" horiz-adv-x="946" d="M82 532q-23 174 33 268.5t180 94.5q69 0 133 -22t112 -44t78 -22t43 16.5t13 57.5h198q25 -173 -31.5 -268t-181.5 -95q-67 0 -131.5 22t-113.5 44t-78 22t-41 -17t-14 -57h-199z" />
<glyph unicode="&#xa1;" horiz-adv-x="520" d="M74 825q0 89 55 137t131 48q77 0 130.5 -47.5t53.5 -137.5t-53.5 -136t-130.5 -46q-76 0 -131 46.5t-55 135.5zM76 -451l33 936h301l32 -936h-366z" />
<glyph unicode="&#xa2;" horiz-adv-x="831" d="M47 479q0 199 86 331t238 177v236h258v-217q65 -9 121 -37v-275q-72 35 -160 35q-93 0 -149 -61.5t-56 -175.5q0 -113 52.5 -172.5t142.5 -59.5q100 0 180 39v-287q-65 -27 -131 -35v-217h-258v232q-148 41 -236 166.5t-88 320.5z" />
<glyph unicode="&#xa3;" horiz-adv-x="1030" d="M51 0v336h39q109 0 109 145v82h-115v262h115v156q0 111 35 197t97 138t143.5 78.5t178.5 26.5q150 0 277 -59v-336q-99 61 -207 61q-158 0 -158 -161v-101h295v-262h-295v-82q0 -109 -51 -145h465v-336h-928z" />
<glyph unicode="&#xa4;" horiz-adv-x="1067" d="M57 385l125 137q-41 84 -41 195q0 109 41 196l-125 136l189 174l121 -133q72 34 165 34q97 0 166 -34l123 133l189 -174l-125 -140q39 -79 39 -192q0 -107 -39 -193l125 -139l-189 -172l-123 131q-72 -35 -166 -35q-90 0 -165 35l-121 -131zM434 717q0 -133 98 -133 q99 0 99 133t-99 133q-98 0 -98 -133z" />
<glyph unicode="&#xa5;" horiz-adv-x="1208" d="M33 1393h389l182 -498l182 498h388l-318 -648h182v-200h-258v-92h258v-201h-258v-252h-352v252h-258v201h258v92h-258v200h182z" />
<glyph unicode="&#xa6;" horiz-adv-x="575" d="M111 -205v821h354v-821h-354zM111 838v821h354v-821h-354z" />
<glyph unicode="&#xa7;" horiz-adv-x="956" d="M57 676q0 79 30.5 137.5t92.5 110.5q-96 83 -96 229q0 80 32.5 141t88.5 97t124.5 53.5t147.5 17.5q183 0 332 -78v-262q-146 90 -279 90q-45 0 -73.5 -17.5t-28.5 -49.5q0 -21 10.5 -37.5t36.5 -31t48 -23.5t67.5 -25t71.5 -27q52 -21 90.5 -43t76.5 -55t58 -80t20 -106 q0 -134 -129 -244q99 -82 99 -221q0 -72 -23.5 -128.5t-63.5 -93t-95.5 -60t-114.5 -33t-127 -9.5q-189 0 -344 88v260q153 -94 315 -94q47 0 77.5 17t30.5 53q0 17 -11 30.5t-35.5 25.5t-48 20.5t-65.5 23t-71 25.5q-244 93 -244 299zM362 715q0 -46 37 -71.5t127 -57.5 q74 44 74 102q0 31 -25 52.5t-77 39.5q-28 9 -78 29q-58 -36 -58 -94z" />
<glyph unicode="&#xa8;" horiz-adv-x="878" d="M61 1706q0 70 49.5 120t120.5 50t120.5 -50t49.5 -120t-49.5 -120t-120.5 -50t-120.5 50t-49.5 120zM477 1706q0 70 49.5 120t120.5 50t120.5 -50t49.5 -120t-49.5 -120t-120.5 -50t-120.5 50t-49.5 120z" />
<glyph unicode="&#xa9;" horiz-adv-x="1396" d="M55 717q0 176 51 318t139.5 233.5t204.5 140.5t248 49q133 0 249 -49t204 -140.5t139 -233.5t51 -318t-51 -318t-139 -234t-204 -141t-249 -49q-132 0 -248 49t-204.5 140.5t-139.5 234t-51 318.5zM199 717q0 -294 136.5 -448t362.5 -154q227 0 364.5 154t137.5 448 t-137.5 448t-364.5 154q-226 0 -362.5 -154t-136.5 -448zM367 705q0 200 111.5 312.5t285.5 112.5q104 0 178 -43v-225q-59 35 -129 35q-78 0 -124 -45.5t-46 -134.5q0 -87 44 -130.5t118 -43.5q90 0 145 37v-236q-78 -41 -200 -41q-169 0 -276 107.5t-107 294.5z" />
<glyph unicode="&#xab;" horiz-adv-x="1071" d="M45 465v53l209 373h326l-228 -399l228 -400h-326zM492 465v53l208 373h326l-225 -399l225 -400h-326z" />
<glyph unicode="&#xac;" horiz-adv-x="944" d="M63 670v305h795v-516h-293v211h-502z" />
<glyph unicode="&#xad;" horiz-adv-x="739" d="M84 352v291h571v-291h-571z" />
<glyph unicode="&#xae;" horiz-adv-x="1396" d="M55 717q0 176 51 318t139.5 233.5t204.5 140.5t248 49q133 0 249 -49t204 -140.5t139 -233.5t51 -318t-51 -318t-139 -234t-204 -141t-249 -49q-132 0 -248 49t-204.5 140.5t-139.5 234t-51 318.5zM199 717q0 -294 136.5 -448t362.5 -154q227 0 364.5 154t137.5 448 t-137.5 448t-364.5 154q-226 0 -362.5 -154t-136.5 -448zM432 315v803h307q135 0 210 -69.5t75 -200.5q0 -161 -119 -230l121 -303h-217l-109 260h-45v-260h-223zM655 754h66q80 0 80 84q0 80 -80 80h-66v-164z" />
<glyph unicode="&#xaf;" horiz-adv-x="741" d="M61 1569v260h619v-260h-619z" />
<glyph unicode="&#xb0;" horiz-adv-x="786" d="M41 1112q0 162 98.5 256t253.5 94q157 0 256 -94t99 -256t-99 -256t-256 -94q-155 0 -253.5 94t-98.5 256zM293 1112q0 -49 26 -77.5t74 -28.5q49 0 76 29t27 77q0 50 -27 78.5t-76 28.5t-74.5 -28.5t-25.5 -78.5z" />
<glyph unicode="&#xb1;" horiz-adv-x="1032" d="M84 102v289h866v-289h-866zM84 768v291h287v272h291v-272h288v-291h-288v-274h-291v274h-287z" />
<glyph unicode="&#xb4;" horiz-adv-x="653" d="M61 1548l170 314h361l-221 -314h-310z" />
<glyph unicode="&#xb6;" horiz-adv-x="1370" d="M35 989q0 211 105.5 328t279.5 117h817v-1885h-346v1557h-125v-1557h-346v996q-174 0 -279.5 116.5t-105.5 327.5z" />
<glyph unicode="&#xb7;" horiz-adv-x="487" d="M57 492q0 88 55 135t132 47q76 0 130 -47t54 -135q0 -91 -54 -138t-130 -47q-77 0 -132 47t-55 138z" />
<glyph unicode="&#xb8;" horiz-adv-x="591" d="M61 -240q62 -24 132 -24q40 0 65 13.5t25 37.5q0 29 -46 40t-118 -1l43 174h248l-27 -98q64 -13 105.5 -56t41.5 -116q0 -98 -78 -153.5t-182 -55.5q-72 0 -117 7.5t-92 27.5v204z" />
<glyph unicode="&#xbb;" horiz-adv-x="1071" d="M47 92l225 400l-225 399h324l211 -373v-53l-211 -373h-324zM494 92l225 400l-225 399h323l211 -373v-53l-211 -373h-323z" />
<glyph unicode="&#xbc;" horiz-adv-x="1599" d="M59 557v242h136v331l-121 -47v236l184 74h191v-594h126v-242h-516zM397 -29l731 1491h95l-731 -1491h-95zM858 115v190l350 531h267v-519h86v-206h-86v-111h-240v115h-377zM1090 311h153v234z" />
<glyph unicode="&#xbd;" horiz-adv-x="1597" d="M55 557v242h135v331l-120 -47v236l184 74h190v-594h127v-242h-516zM393 -29l731 1491h95l-732 -1491h-94zM969 0l2 170q1 34 14 68t28.5 56.5t48 53t49.5 44t57 42.5q11 8 16 12q52 38 79 66t27 53q0 56 -71 56q-107 0 -226 -72v242q120 63 267 63q125 0 206.5 -67.5 t81.5 -198.5q0 -111 -94 -205q-28 -31 -73.5 -63t-75 -52.5t-31.5 -34.5h274v-233h-579z" />
<glyph unicode="&#xbe;" horiz-adv-x="1609" d="M59 588v219q95 -31 189 -31q139 0 139 70q0 55 -94 55h-103v193h82q88 0 88 53q0 59 -108 59q-83 0 -191 -41v211q105 45 238 45q140 0 224.5 -59t84.5 -172q0 -60 -26 -106t-70 -72q56 -26 93.5 -77.5t37.5 -131.5q0 -88 -50.5 -146.5t-128 -82t-179.5 -23.5 q-130 0 -226 37zM414 -29l731 1491h94l-731 -1491h-94zM868 115v190l351 531h268v-519h84v-206h-84v-111h-240v115h-379zM1100 311h153v234z" />
<glyph unicode="&#xbf;" horiz-adv-x="860" d="M35 -125q0 80 28.5 156.5t69 135t81 113.5t69 114.5t28.5 115.5h307q0 -76 -22.5 -145.5t-54 -120t-63.5 -96.5t-54.5 -94.5t-22.5 -94.5q0 -49 36 -74.5t100 -25.5q65 0 140 28.5t138 73.5v-338q-95 -52 -174 -76t-184 -24q-63 0 -122.5 12.5t-114.5 40t-95.5 67.5 t-65 99.5t-24.5 132.5zM279 827q0 90 53.5 137.5t130.5 47.5q76 0 131 -48t55 -137t-55 -135.5t-131 -46.5q-77 0 -130.5 46t-53.5 136z" />
<glyph unicode="&#xc0;" horiz-adv-x="1249" d="M-8 0l454 1434h357l454 -1434h-368l-60 215h-407l-60 -215h-370zM291 1862h358l172 -314h-309zM494 506h262l-68 246q-42 158 -63 309q-22 -159 -62 -309z" />
<glyph unicode="&#xc1;" horiz-adv-x="1249" d="M-8 0l454 1434h357l454 -1434h-368l-60 215h-407l-60 -215h-370zM430 1548l170 314h358l-221 -314h-307zM494 506h262l-68 246q-42 158 -63 309q-22 -159 -62 -309z" />
<glyph unicode="&#xc2;" horiz-adv-x="1249" d="M-8 0l454 1434h357l454 -1434h-368l-60 215h-407l-60 -215h-370zM258 1542l207 320h317l207 -320h-282l-82 119l-82 -119h-285zM494 506h262l-68 246q-42 158 -63 309q-22 -159 -62 -309z" />
<glyph unicode="&#xc3;" horiz-adv-x="1249" d="M-8 0l454 1434h357l454 -1434h-368l-60 215h-407l-60 -215h-370zM299 1538q-38 149 13 236.5t159 87.5q54 0 104 -19t88.5 -38t65.5 -19q9 0 16.5 1.5t13 6.5t8.5 7.5t6 12t3.5 11.5l3.5 14l2 12h164q37 -150 -14.5 -237.5t-161.5 -87.5q-53 0 -102.5 19.5t-88 39 t-65.5 19.5q-20 0 -31.5 -12t-14 -23.5t-3.5 -30.5h-166zM494 506h262l-68 246q-42 158 -63 309q-22 -159 -62 -309z" />
<glyph unicode="&#xc4;" horiz-adv-x="1249" d="M-8 0l454 1434h357l454 -1434h-368l-60 215h-407l-60 -215h-370zM246 1706q0 70 50 120t120 50t120 -50t50 -120t-50 -120t-120 -50t-120 50t-50 120zM494 506h262l-68 246q-42 158 -63 309q-22 -159 -62 -309zM662 1706q0 71 49.5 120.5t119.5 49.5q71 0 120.5 -50 t49.5 -120t-49.5 -120t-120.5 -50q-70 0 -119.5 49.5t-49.5 120.5z" />
<glyph unicode="&#xc5;" horiz-adv-x="1249" d="M-8 0l454 1434h357l454 -1434h-368l-60 215h-407l-60 -215h-370zM356 1765q0 118 76 187t193 69q118 0 193 -68.5t75 -187.5q0 -120 -75 -189t-193 -69q-117 0 -193 69t-76 189zM494 506h262l-68 246q-42 158 -63 309q-22 -159 -62 -309zM559 1765q0 -34 17.5 -52.5 t48.5 -18.5t48 18.5t17 52.5t-17 52t-48 18t-48.5 -18.5t-17.5 -51.5z" />
<glyph unicode="&#xc6;" horiz-adv-x="1617" d="M-23 0l652 1434h917v-316h-438v-244h391v-307h-391v-248h451v-319h-797v205h-322l-90 -205h-373zM559 496h203v467z" />
<glyph unicode="&#xc7;" horiz-adv-x="1030" d="M47 707q1 179 51.5 323.5t138.5 238t205 143.5t254 50q135 0 273 -55v-342q-86 47 -221 47q-151 0 -241.5 -104.5t-90.5 -300.5q0 -190 85 -289t236 -99q118 0 242 54v-350q-99 -39 -209 -48l-20 -73q65 -13 106 -56t41 -116q0 -98 -77 -153.5t-181 -55.5q-74 0 -119 7.5 t-92 27.5v204q62 -24 131 -24q40 0 65 13.5t25 37.5q0 29 -46 40t-118 -1l43 164q-104 25 -190 81.5t-152 143.5t-102.5 213t-36.5 279z" />
<glyph unicode="&#xc8;" horiz-adv-x="1019" d="M100 0v1434h846v-316h-491v-244h444v-307h-444v-248h503v-319h-858zM190 1862h359l172 -314h-309z" />
<glyph unicode="&#xc9;" horiz-adv-x="1019" d="M100 0v1434h846v-316h-491v-244h444v-307h-444v-248h503v-319h-858zM330 1548l170 314h358l-221 -314h-307z" />
<glyph unicode="&#xca;" horiz-adv-x="1019" d="M100 0v1434h846v-316h-491v-244h444v-307h-444v-248h503v-319h-858zM158 1542l207 320h317l207 -320h-283l-82 119l-82 -119h-284z" />
<glyph unicode="&#xcb;" horiz-adv-x="1019" d="M100 0v1434h846v-316h-491v-244h444v-307h-444v-248h503v-319h-858zM145 1706q0 70 49.5 120t120.5 50t120.5 -50t49.5 -120t-49.5 -120t-120.5 -50t-120.5 50t-49.5 120zM561 1706q0 70 49.5 120t120.5 50t120.5 -50t49.5 -120t-49.5 -120t-120.5 -50t-120.5 50 t-49.5 120z" />
<glyph unicode="&#xcc;" horiz-adv-x="555" d="M-74 1862h359l172 -314h-310zM100 0v1434h355v-1434h-355z" />
<glyph unicode="&#xcd;" horiz-adv-x="555" d="M66 1548l170 314h358l-221 -314h-307zM100 0v1434h355v-1434h-355z" />
<glyph unicode="&#xce;" horiz-adv-x="555" d="M-104 1542l206 320h318l207 -320h-283l-82 119l-82 -119h-284zM100 0v1434h355v-1434h-355z" />
<glyph unicode="&#xcf;" horiz-adv-x="555" d="M-119 1706q0 70 49.5 120t120.5 50t120.5 -50t49.5 -120t-49.5 -120t-120.5 -50t-120.5 50t-49.5 120zM100 0v1434h355v-1434h-355zM297 1706q0 70 49.5 120t120.5 50t120.5 -50t49.5 -120t-49.5 -120t-120.5 -50t-120.5 50t-49.5 120z" />
<glyph unicode="&#xd0;" horiz-adv-x="1288" d="M31 571v291h129v572h467q132 0 236 -36.5t173.5 -100t115 -155t65.5 -196.5t20 -229t-20 -229t-65.5 -196.5t-115 -155t-173.5 -100t-236 -36.5h-467v571h-129zM512 336h115q132 0 195 89t63 292t-63 292t-195 89h-115v-236h176v-291h-176v-235z" />
<glyph unicode="&#xd1;" horiz-adv-x="1267" d="M100 0v1434h322l424 -811q-33 200 -33 374v437h352v-1434h-319l-426 811q35 -184 35 -375v-436h-355zM315 1538q-38 149 13 236.5t159 87.5q54 0 104 -19t88.5 -38t65.5 -19q7 0 13.5 1t11 4t8 5t6.5 7.5t4.5 8t3.5 10t3 9.5t2.5 10.5t1.5 9.5h164q37 -150 -15 -237.5 t-162 -87.5q-53 0 -102.5 19.5t-88 39t-65.5 19.5q-20 0 -31.5 -12t-14 -23.5t-3.5 -30.5h-166z" />
<glyph unicode="&#xd2;" d="M51 717q0 170 34 304.5t103 234t181.5 153t261.5 53.5t261 -53.5t181 -153t103 -234t34 -304.5q0 -169 -34 -303.5t-103 -234.5t-181 -154t-261 -54t-261.5 54t-181.5 154t-103 234.5t-34 303.5zM297 1862h358l172 -314h-309zM420 717q0 -201 51.5 -298t159.5 -97 q110 0 161.5 97t51.5 298t-51.5 298t-161.5 97q-108 0 -159.5 -97t-51.5 -298z" />
<glyph unicode="&#xd3;" d="M51 717q0 170 34 304.5t103 234t181.5 153t261.5 53.5t261 -53.5t181 -153t103 -234t34 -304.5q0 -169 -34 -303.5t-103 -234.5t-181 -154t-261 -54t-261.5 54t-181.5 154t-103 234.5t-34 303.5zM420 717q0 -201 51.5 -298t159.5 -97q110 0 161.5 97t51.5 298t-51.5 298 t-161.5 97q-108 0 -159.5 -97t-51.5 -298zM438 1548l170 314h359l-222 -314h-307z" />
<glyph unicode="&#xd4;" d="M51 717q0 170 34 304.5t103 234t181.5 153t261.5 53.5t261 -53.5t181 -153t103 -234t34 -304.5q0 -169 -34 -303.5t-103 -234.5t-181 -154t-261 -54t-261.5 54t-181.5 154t-103 234.5t-34 303.5zM266 1542l207 320h318l206 -320h-282l-82 119l-82 -119h-285zM420 717 q0 -201 51.5 -298t159.5 -97q110 0 161.5 97t51.5 298t-51.5 298t-161.5 97q-108 0 -159.5 -97t-51.5 -298z" />
<glyph unicode="&#xd5;" d="M51 717q0 170 34 304.5t103 234t181.5 153t261.5 53.5t261 -53.5t181 -153t103 -234t34 -304.5q0 -169 -34 -303.5t-103 -234.5t-181 -154t-261 -54t-261.5 54t-181.5 154t-103 234.5t-34 303.5zM307 1538q-38 149 13 236.5t159 87.5q54 0 104 -19t88.5 -38t65.5 -19 q7 0 13.5 1t11 4t8 5t6.5 7.5t4.5 8t3.5 10t3 9.5t2.5 10.5t1.5 9.5h163q37 -150 -14.5 -237.5t-161.5 -87.5q-53 0 -102.5 19.5t-88 39t-65.5 19.5q-20 0 -31.5 -12t-14 -23.5t-3.5 -30.5h-166zM420 717q0 -201 51.5 -298t159.5 -97q110 0 161.5 97t51.5 298t-51.5 298 t-161.5 97q-108 0 -159.5 -97t-51.5 -298z" />
<glyph unicode="&#xd6;" d="M51 717q0 170 34 304.5t103 234t181.5 153t261.5 53.5t261 -53.5t181 -153t103 -234t34 -304.5q0 -169 -34 -303.5t-103 -234.5t-181 -154t-261 -54t-261.5 54t-181.5 154t-103 234.5t-34 303.5zM254 1706q0 70 50 120t120 50t120 -50t50 -120t-50 -120t-120 -50t-120 50 t-50 120zM420 717q0 -201 51.5 -298t159.5 -97q110 0 161.5 97t51.5 298t-51.5 298t-161.5 97q-108 0 -159.5 -97t-51.5 -298zM670 1706q0 70 50 120t120 50t120 -50t50 -120t-50 -120t-120 -50t-120 50t-50 120z" />
<glyph unicode="&#xd7;" horiz-adv-x="935" d="M57 510l207 209l-207 207l203 202l209 -206l207 206l203 -202l-207 -207l207 -209l-203 -203l-207 207l-209 -207z" />
<glyph unicode="&#xd8;" d="M51 717q0 170 34 304.5t103 234t181.5 153t261.5 53.5q147 0 256 -53l59 123h158l-96 -201q202 -188 202 -614q0 -169 -34 -303.5t-103 -234.5t-181 -154t-261 -54q-143 0 -250 49l-57 -118h-158l94 196q-209 191 -209 619zM420 717q0 -141 33 -223l278 591 q-44 27 -100 27q-108 0 -159.5 -97t-51.5 -298zM539 346q36 -24 92 -24q110 0 161.5 97t51.5 298q0 135 -29 215z" />
<glyph unicode="&#xd9;" horiz-adv-x="1247" d="M90 459v975h354v-945q0 -95 45 -138.5t134 -43.5q90 0 135 43.5t45 138.5v945h352v-975q0 -245 -140 -366.5t-392 -121.5q-251 0 -392 121.5t-141 366.5zM287 1862h358l172 -314h-309z" />
<glyph unicode="&#xda;" horiz-adv-x="1247" d="M90 459v975h354v-945q0 -95 45 -138.5t134 -43.5q90 0 135 43.5t45 138.5v945h352v-975q0 -245 -140 -366.5t-392 -121.5q-251 0 -392 121.5t-141 366.5zM426 1548l170 314h358l-221 -314h-307z" />
<glyph unicode="&#xdb;" horiz-adv-x="1247" d="M90 459v975h354v-945q0 -95 45 -138.5t134 -43.5q90 0 135 43.5t45 138.5v945h352v-975q0 -245 -140 -366.5t-392 -121.5q-251 0 -392 121.5t-141 366.5zM256 1542l207 320h317l207 -320h-282l-82 119l-82 -119h-285z" />
<glyph unicode="&#xdc;" horiz-adv-x="1247" d="M90 459v975h354v-945q0 -95 45 -138.5t134 -43.5q90 0 135 43.5t45 138.5v945h352v-975q0 -245 -140 -366.5t-392 -121.5q-251 0 -392 121.5t-141 366.5zM242 1706q0 70 50 120t120 50t120 -50t50 -120t-50 -120t-120 -50t-120 50t-50 120zM657 1706q0 70 49.5 120 t120.5 50t120.5 -50t49.5 -120t-49.5 -120t-120.5 -50t-120.5 50t-49.5 120z" />
<glyph unicode="&#xdd;" horiz-adv-x="1202" d="M-2 1434h385l219 -539l217 539h387l-428 -891v-543h-352v543zM406 1548l169 314h359l-221 -314h-307z" />
<glyph unicode="&#xde;" horiz-adv-x="1157" d="M100 0v1434h355v-220h174q225 0 359 -128.5t134 -368.5t-134 -369t-359 -129h-174v-219h-355zM455 541h143q81 0 125.5 46t44.5 130t-43.5 130t-126.5 46h-143v-352z" />
<glyph unicode="&#xdf;" horiz-adv-x="1056" d="M80 0v999q0 224 118 342.5t334 120.5q101 1 183 -30t131 -79.5t74.5 -103.5t25.5 -108q0 -61 -19 -117t-41.5 -90.5t-41.5 -75t-19 -74.5q0 -40 31 -94t67.5 -103.5t67.5 -132t31 -173.5q0 -107 -52.5 -180t-146.5 -101q-122 -47 -309 -8v274q65 -18 104 -4 q31 5 49.5 27.5t18.5 62.5q0 44 -26 106.5t-58 116.5t-58 117.5t-26 108.5q0 55 46 149t46 140q0 44 -22 71t-62 27q-110 0 -110 -168v-1020h-336z" />
<glyph unicode="&#xe0;" horiz-adv-x="974" d="M35 281q0 150 99.5 230.5t266.5 80.5q71 0 148 -19v43q0 119 -152 119q-154 0 -301 -59v276q171 60 336 60q219 0 333 -95.5t114 -320.5v-307q0 -62 55 -62q13 0 33 4v-225q-80 -22 -160 -22q-132 0 -197 71q-103 -84 -260 -84q-135 0 -225 80t-90 230zM131 1425h358 l173 -313h-310zM354 287q0 -54 26 -79.5t66 -25.5q63 0 103 37v170q-42 10 -72 10q-123 0 -123 -112z" />
<glyph unicode="&#xe1;" horiz-adv-x="974" d="M35 281q0 150 99.5 230.5t266.5 80.5q71 0 148 -19v43q0 119 -152 119q-154 0 -301 -59v276q171 60 336 60q219 0 333 -95.5t114 -320.5v-307q0 -62 55 -62q13 0 33 4v-225q-80 -22 -160 -22q-132 0 -197 71q-103 -84 -260 -84q-135 0 -225 80t-90 230zM272 1112l170 313 h359l-221 -313h-308zM354 287q0 -54 26 -79.5t66 -25.5q63 0 103 37v170q-42 10 -72 10q-123 0 -123 -112z" />
<glyph unicode="&#xe2;" horiz-adv-x="974" d="M35 281q0 150 99.5 230.5t266.5 80.5q71 0 148 -19v43q0 119 -152 119q-154 0 -301 -59v276q171 60 336 60q219 0 333 -95.5t114 -320.5v-307q0 -62 55 -62q13 0 33 4v-225q-80 -22 -160 -22q-132 0 -197 71q-103 -84 -260 -84q-135 0 -225 80t-90 230zM100 1106l207 319 h318l206 -319h-282l-82 119l-82 -119h-285zM354 287q0 -54 26 -79.5t66 -25.5q63 0 103 37v170q-42 10 -72 10q-123 0 -123 -112z" />
<glyph unicode="&#xe3;" horiz-adv-x="974" d="M35 281q0 150 99.5 230.5t266.5 80.5q71 0 148 -19v43q0 119 -152 119q-154 0 -301 -59v276q171 60 336 60q219 0 333 -95.5t114 -320.5v-307q0 -62 55 -62q13 0 33 4v-225q-80 -22 -160 -22q-132 0 -197 71q-103 -84 -260 -84q-135 0 -225 80t-90 230zM141 1102 q-38 149 13 236t159 87q42 0 83 -11.5t67.5 -26t56 -26t51.5 -11.5q7 0 13.5 1t11 4t8 5t6.5 7.5t4.5 8t3.5 10t3 9.5t2.5 10.5t1.5 9.5h163q37 -150 -14.5 -237.5t-161.5 -87.5q-42 0 -82.5 12t-66.5 26.5t-55.5 26.5t-51.5 12q-20 0 -31.5 -12t-14 -23t-3.5 -30h-166z M354 287q0 -54 26 -79.5t66 -25.5q63 0 103 37v170q-42 10 -72 10q-123 0 -123 -112z" />
<glyph unicode="&#xe4;" horiz-adv-x="974" d="M35 281q0 150 99.5 230.5t266.5 80.5q71 0 148 -19v43q0 119 -152 119q-154 0 -301 -59v276q171 60 336 60q219 0 333 -95.5t114 -320.5v-307q0 -62 55 -62q13 0 33 4v-225q-80 -22 -160 -22q-132 0 -197 71q-103 -84 -260 -84q-135 0 -225 80t-90 230zM88 1270 q0 70 50 120t120 50t120 -50t50 -120t-50 -120t-120 -50t-120 50t-50 120zM354 287q0 -54 26 -79.5t66 -25.5q63 0 103 37v170q-42 10 -72 10q-123 0 -123 -112zM504 1270q0 70 50 120t120 50t120 -50t50 -120t-50 -120t-120 -50t-120 50t-50 120z" />
<glyph unicode="&#xe5;" horiz-adv-x="974" d="M35 281q0 150 99.5 230.5t266.5 80.5q71 0 148 -19v43q0 119 -152 119q-154 0 -301 -59v276q171 60 336 60q219 0 333 -95.5t114 -320.5v-307q0 -62 55 -62q13 0 33 4v-225q-80 -22 -160 -22q-132 0 -197 71q-103 -84 -260 -84q-135 0 -225 80t-90 230zM197 1329 q0 119 75.5 187.5t192.5 68.5q118 0 193 -68.5t75 -187.5q0 -120 -75 -189t-193 -69q-117 0 -192.5 69t-75.5 189zM354 287q0 -54 26 -79.5t66 -25.5q63 0 103 37v170q-42 10 -72 10q-123 0 -123 -112zM399 1329q0 -34 17.5 -53t48.5 -19t48 19t17 53t-17 52t-48 18 t-48.5 -18.5t-17.5 -51.5z" />
<glyph unicode="&#xe6;" horiz-adv-x="1447" d="M35 281q0 150 98.5 230.5t263.5 80.5q73 0 150 -19v50q0 112 -152 112t-299 -59v276q171 60 316 60q207 0 307 -115q103 115 282 115q98 0 177 -39.5t134 -115t80 -195t13 -271.5h-528q17 -87 69.5 -123.5t153.5 -36.5q134 0 248 43v-249q-123 -54 -299 -54 q-214 0 -338 92q-136 -92 -328 -92q-151 0 -249.5 83t-98.5 227zM354 301q0 -44 28 -66t75 -22q72 0 112 43q-17 65 -22 125q-31 10 -72 10q-57 0 -89 -22.5t-32 -67.5zM866 565h234q-6 174 -107 174q-58 0 -88 -42.5t-39 -131.5z" />
<glyph unicode="&#xe7;" horiz-adv-x="804" d="M43 479q0 128 37 230.5t103 168t153.5 100t191.5 34.5q126 0 217 -43v-275q-72 35 -159 35q-93 0 -149 -61.5t-56 -175.5q0 -113 53.5 -172.5t143.5 -59.5q98 0 178 39v-287q-59 -26 -135 -35l-21 -75q66 -13 107 -56t41 -116q0 -98 -77.5 -153.5t-181.5 -55.5 q-74 0 -118.5 7.5t-91.5 27.5v204q61 -24 131 -24q40 0 65 13.5t25 37.5q0 29 -46 40t-118 -1l41 162q-150 40 -242 166t-92 325z" />
<glyph unicode="&#xe8;" horiz-adv-x="964" d="M45 492q0 245 119.5 382.5t333.5 137.5t331 -166.5t93 -474.5h-529q20 -81 75 -117.5t148 -36.5q134 0 248 43v-235q-123 -54 -299 -54q-248 0 -384 137t-136 384zM150 1411h358l172 -313h-309zM379 573h235q-2 87 -27.5 131t-80.5 44q-115 0 -127 -175z" />
<glyph unicode="&#xe9;" horiz-adv-x="964" d="M45 492q0 245 119.5 382.5t333.5 137.5t331 -166.5t93 -474.5h-529q20 -81 75 -117.5t148 -36.5q134 0 248 43v-235q-123 -54 -299 -54q-248 0 -384 137t-136 384zM289 1098l170 313h358l-221 -313h-307zM379 573h235q-2 87 -27.5 131t-80.5 44q-115 0 -127 -175z" />
<glyph unicode="&#xea;" horiz-adv-x="964" d="M45 492q0 245 119.5 382.5t333.5 137.5t331 -166.5t93 -474.5h-529q20 -81 75 -117.5t148 -36.5q134 0 248 43v-235q-123 -54 -299 -54q-248 0 -384 137t-136 384zM117 1092l207 319h317l207 -319h-283l-82 118l-82 -118h-284zM379 573h235q-2 87 -27.5 131t-80.5 44 q-115 0 -127 -175z" />
<glyph unicode="&#xeb;" horiz-adv-x="964" d="M45 492q0 245 119.5 382.5t333.5 137.5t331 -166.5t93 -474.5h-529q20 -81 75 -117.5t148 -36.5q134 0 248 43v-235q-123 -54 -299 -54q-248 0 -384 137t-136 384zM104 1255q0 71 50 120.5t120 49.5t120 -49.5t50 -120.5t-50 -120.5t-120 -49.5t-120 49.5t-50 120.5z M379 573h235q-2 87 -27.5 131t-80.5 44q-115 0 -127 -175zM520 1255q0 71 50 120.5t120 49.5t120 -49.5t50 -120.5t-50 -120.5t-120 -49.5t-120 49.5t-50 120.5z" />
<glyph unicode="&#xec;" horiz-adv-x="497" d="M-31 1432h348l132 -334h-293zM82 0v983h336v-983h-336z" />
<glyph unicode="&#xed;" horiz-adv-x="497" d="M51 1098l129 334h348l-186 -334h-291zM82 0v983h336v-983h-336z" />
<glyph unicode="&#xee;" horiz-adv-x="497" d="M-55 1083l159 342h289l162 -342h-240l-65 146l-66 -146h-239zM82 0v983h336v-983h-336z" />
<glyph unicode="&#xef;" horiz-adv-x="497" d="M-84 1227q0 63 45.5 107t108.5 44t107 -44t44 -107t-44 -108.5t-107 -45.5t-108.5 45.5t-45.5 108.5zM82 0v983h336v-983h-336zM276 1227q0 63 45.5 107t108.5 44t107.5 -44t44.5 -107t-44.5 -108.5t-107.5 -45.5t-108.5 45.5t-45.5 108.5z" />
<glyph unicode="&#xf0;" horiz-adv-x="989" d="M43 444q0 197 103.5 313.5t269.5 116.5q100 0 164 -40q-35 150 -115 227l-135 -141l-123 116l102 107q-80 24 -182 24v289q227 0 399 -82l121 127l123 -119l-98 -102q262 -232 262 -725q0 -584 -449 -584q-205 0 -323.5 122.5t-118.5 350.5zM373 436q0 -188 119 -188 q40 0 64.5 20.5t35 60.5t13 98.5t-0.5 133.5q-37 53 -104 53q-127 0 -127 -178z" />
<glyph unicode="&#xf1;" horiz-adv-x="1013" d="M80 0v983h303v-88q98 117 262 117q56 0 107.5 -19.5t94 -56.5t68 -97t25.5 -134v-705h-336v621q0 79 -78 79q-66 0 -110 -69v-631h-336zM182 1087q-38 149 13 236.5t159 87.5q54 0 104 -19t88.5 -38t65.5 -19q7 0 13.5 1t11 4t8 5.5t6.5 8t5 8t3.5 9.5t2.5 9.5t2.5 10.5 t1.5 10h163q37 -150 -14.5 -238t-161.5 -88q-53 0 -102.5 19.5t-88 39t-65.5 19.5q-20 0 -31.5 -12t-14 -23.5t-3.5 -30.5h-166z" />
<glyph unicode="&#xf2;" horiz-adv-x="1011" d="M45 492q0 243 120.5 381.5t340.5 138.5t339.5 -137.5t119.5 -382.5q0 -244 -120 -382.5t-339 -138.5t-340 138.5t-121 382.5zM172 1397h358l172 -314h-309zM383 492q0 -121 28.5 -176.5t94.5 -55.5t94.5 55.5t28.5 176.5t-28.5 177t-94.5 56t-94.5 -56t-28.5 -177z" />
<glyph unicode="&#xf3;" horiz-adv-x="1011" d="M45 492q0 243 120.5 381.5t340.5 138.5t339.5 -137.5t119.5 -382.5q0 -244 -120 -382.5t-339 -138.5t-340 138.5t-121 382.5zM311 1083l170 314h359l-222 -314h-307zM383 492q0 -121 28.5 -176.5t94.5 -55.5t94.5 55.5t28.5 176.5t-28.5 177t-94.5 56t-94.5 -56 t-28.5 -177z" />
<glyph unicode="&#xf4;" horiz-adv-x="1011" d="M45 492q0 243 120.5 381.5t340.5 138.5t339.5 -137.5t119.5 -382.5q0 -244 -120 -382.5t-339 -138.5t-340 138.5t-121 382.5zM139 1077l207 320h318l206 -320h-282l-82 119l-82 -119h-285zM383 492q0 -121 28.5 -176.5t94.5 -55.5t94.5 55.5t28.5 176.5t-28.5 177 t-94.5 56t-94.5 -56t-28.5 -177z" />
<glyph unicode="&#xf5;" horiz-adv-x="1011" d="M45 492q0 243 120.5 381.5t340.5 138.5t339.5 -137.5t119.5 -382.5q0 -244 -120 -382.5t-339 -138.5t-340 138.5t-121 382.5zM180 1073q-38 149 13 236.5t159 87.5q54 0 104 -19t88.5 -38t65.5 -19q7 0 13.5 1t11 4t8 5t6.5 7.5t4.5 8t3.5 10t3 9.5t2.5 10.5t1.5 9.5h163 q37 -150 -14.5 -237.5t-161.5 -87.5q-53 0 -102.5 19.5t-88 39t-65.5 19.5q-20 0 -31.5 -12t-14 -23.5t-3.5 -30.5h-166zM383 492q0 -121 28.5 -176.5t94.5 -55.5t94.5 55.5t28.5 176.5t-28.5 177t-94.5 56t-94.5 -56t-28.5 -177z" />
<glyph unicode="&#xf6;" horiz-adv-x="1011" d="M45 492q0 243 120.5 381.5t340.5 138.5t339.5 -137.5t119.5 -382.5q0 -244 -120 -382.5t-339 -138.5t-340 138.5t-121 382.5zM127 1241q0 71 49.5 120.5t120.5 49.5t120.5 -49.5t49.5 -120.5t-49.5 -120.5t-120.5 -49.5t-120.5 49.5t-49.5 120.5zM383 492 q0 -121 28.5 -176.5t94.5 -55.5t94.5 55.5t28.5 176.5t-28.5 177t-94.5 56t-94.5 -56t-28.5 -177zM543 1241q0 71 49.5 120.5t120.5 49.5t120.5 -49.5t49.5 -120.5t-49.5 -120.5t-120.5 -49.5t-120.5 49.5t-49.5 120.5z" />
<glyph unicode="&#xf7;" horiz-adv-x="913" d="M51 567v297h809v-297h-809zM272 303q0 88 54.5 134t130.5 46q77 0 130.5 -46t53.5 -134q0 -90 -53.5 -137t-130.5 -47q-76 0 -130.5 47.5t-54.5 136.5zM272 1128q0 91 54.5 138t130.5 47q77 0 130.5 -47t53.5 -138q0 -88 -53.5 -134t-130.5 -46q-76 0 -130.5 46 t-54.5 134z" />
<glyph unicode="&#xf8;" horiz-adv-x="1009" d="M45 492q0 240 121 378t340 138q112 0 196 -37l74 141h111l-101 -188q179 -135 179 -432q0 -241 -120 -379t-339 -138q-113 0 -197 37l-73 -139h-111l98 188q-178 134 -178 431zM369 492q0 -83 18 -125l180 352q-28 14 -61 14q-71 0 -104 -59t-33 -182zM442 266 q25 -14 64 -14q71 0 104 59t33 181q0 74 -18 126z" />
<glyph unicode="&#xf9;" horiz-adv-x="1013" d="M74 279v704h336v-621q0 -79 77 -79q67 0 111 69v631h336v-983h-303v90q-97 -119 -262 -119q-55 0 -106.5 20t-94 57t-68.5 97t-26 134zM162 1411h358l172 -313h-309z" />
<glyph unicode="&#xfa;" horiz-adv-x="1013" d="M74 279v704h336v-621q0 -79 77 -79q67 0 111 69v631h336v-983h-303v90q-97 -119 -262 -119q-55 0 -106.5 20t-94 57t-68.5 97t-26 134zM303 1098l170 313h358l-221 -313h-307z" />
<glyph unicode="&#xfb;" horiz-adv-x="1013" d="M74 279v704h336v-621q0 -79 77 -79q67 0 111 69v631h336v-983h-303v90q-97 -119 -262 -119q-55 0 -106.5 20t-94 57t-68.5 97t-26 134zM131 1092l207 319h317l207 -319h-282l-82 118l-82 -118h-285z" />
<glyph unicode="&#xfc;" horiz-adv-x="1013" d="M74 279v704h336v-621q0 -79 77 -79q67 0 111 69v631h336v-983h-303v90q-97 -119 -262 -119q-55 0 -106.5 20t-94 57t-68.5 97t-26 134zM119 1255q0 71 49.5 120.5t120.5 49.5t120.5 -49.5t49.5 -120.5t-49.5 -120.5t-120.5 -49.5t-120.5 49.5t-49.5 120.5zM535 1255 q0 71 49.5 120.5t120.5 49.5q70 0 119.5 -49.5t49.5 -120.5t-49.5 -120.5t-119.5 -49.5q-71 0 -120.5 49.5t-49.5 120.5z" />
<glyph unicode="&#xfd;" horiz-adv-x="1028" d="M-2 983h367l161 -565l127 565h369l-350 -1100q-60 -191 -180 -280q-143 -102 -353 -54v275q49 -8 92 8q56 14 97 68q29 34 51 88zM303 1098l170 313h358l-221 -313h-307z" />
<glyph unicode="&#xfe;" horiz-adv-x="1026" d="M80 -451v1885h336v-519q86 97 221 97q171 0 255.5 -139t84.5 -381q0 -158 -35 -272.5t-112.5 -181.5t-192.5 -67q-135 0 -221 97v-519h-336zM416 336q42 -76 112 -76q64 0 91.5 57t27.5 175t-27.5 174.5t-91.5 56.5q-70 0 -112 -76v-311z" />
<glyph unicode="&#xff;" horiz-adv-x="1028" d="M-2 983h367l161 -565l127 565h369l-350 -1100q-60 -191 -180 -280q-143 -102 -353 -54v275q49 -8 92 8q56 14 97 68q29 34 51 88zM119 1255q0 71 49.5 120.5t120.5 49.5t120.5 -49.5t49.5 -120.5t-49.5 -120.5t-120.5 -49.5t-120.5 49.5t-49.5 120.5zM535 1255 q0 71 49.5 120.5t120.5 49.5q70 0 119.5 -49.5t49.5 -120.5t-49.5 -120.5t-119.5 -49.5q-71 0 -120.5 49.5t-49.5 120.5z" />
<glyph unicode="&#x152;" horiz-adv-x="1603" d="M53 717q0 354 138.5 549.5t392.5 195.5q97 0 176 -28h770v-316h-424v-244h377v-307h-377v-248h436v-319h-782q-79 -29 -174 -29q-255 0 -394 197t-139 549zM422 717q0 -395 225 -395q64 0 113 22v746q-49 22 -113 22q-225 0 -225 -395z" />
<glyph unicode="&#x153;" horiz-adv-x="1511" d="M47 492q0 240 110 380t316 140q202 0 295 -158q109 158 311 158q204 0 306.5 -160.5t78.5 -460.5h-530q18 -87 72.5 -123.5t152.5 -36.5q137 0 248 43v-249q-120 -54 -256 -54q-264 0 -381 156q-92 -156 -297 -156q-206 0 -316 140.5t-110 380.5zM379 492 q0 -122 26.5 -177t90.5 -55q63 0 89.5 55.5t26.5 176.5t-26.5 177t-89.5 56q-64 0 -90.5 -55.5t-26.5 -177.5zM928 565h231q-6 174 -106 174q-110 0 -125 -174z" />
<glyph unicode="&#x178;" horiz-adv-x="1202" d="M-2 1434h385l219 -539l217 539h387l-428 -891v-543h-352v543zM221 1706q0 70 49.5 120t120.5 50t120.5 -50t49.5 -120t-49.5 -120t-120.5 -50t-120.5 50t-49.5 120zM637 1706q0 70 49.5 120t120.5 50t120.5 -50t49.5 -120t-49.5 -120t-120.5 -50t-120.5 50t-49.5 120z " />
<glyph unicode="&#x2c6;" horiz-adv-x="854" d="M61 1542l207 320h318l207 -320h-283l-82 119l-84 -119h-283z" />
<glyph unicode="&#x2dc;" horiz-adv-x="802" d="M78 1538q-37 149 14 236.5t160 87.5q53 0 102.5 -19t88.5 -38t67 -19q15 0 25 5.5t15 17t7 19t4 23.5h164q38 -150 -13.5 -237.5t-160.5 -87.5q-54 0 -103.5 19.5t-88 39t-66.5 19.5q-6 0 -11.5 -1.5t-9.5 -3t-7.5 -5l-6 -6t-4.5 -7.5l-3 -7.5t-2.5 -9.5t-2 -9t-1.5 -9 t-1 -8h-166z" />
<glyph unicode="&#x2000;" horiz-adv-x="1010" />
<glyph unicode="&#x2001;" horiz-adv-x="2021" />
<glyph unicode="&#x2002;" horiz-adv-x="1010" />
<glyph unicode="&#x2003;" horiz-adv-x="2021" />
<glyph unicode="&#x2004;" horiz-adv-x="673" />
<glyph unicode="&#x2005;" horiz-adv-x="505" />
<glyph unicode="&#x2006;" horiz-adv-x="336" />
<glyph unicode="&#x2007;" horiz-adv-x="336" />
<glyph unicode="&#x2008;" horiz-adv-x="252" />
<glyph unicode="&#x2009;" horiz-adv-x="404" />
<glyph unicode="&#x200a;" horiz-adv-x="112" />
<glyph unicode="&#x2010;" horiz-adv-x="739" d="M84 352v291h571v-291h-571z" />
<glyph unicode="&#x2011;" horiz-adv-x="739" d="M84 352v291h571v-291h-571z" />
<glyph unicode="&#x2012;" horiz-adv-x="739" d="M84 352v291h571v-291h-571z" />
<glyph unicode="&#x2013;" horiz-adv-x="935" d="M84 352v291h770v-291h-770z" />
<glyph unicode="&#x2014;" horiz-adv-x="1339" d="M84 352v291h1171v-291h-1171z" />
<glyph unicode="&#x2018;" horiz-adv-x="479" d="M45 862l100 572h267l-27 -572h-340z" />
<glyph unicode="&#x2019;" horiz-adv-x="473" d="M70 862l26 572h340l-100 -572h-266z" />
<glyph unicode="&#x201a;" horiz-adv-x="479" d="M53 -311l29 571h338l-101 -571h-266z" />
<glyph unicode="&#x201c;" horiz-adv-x="866" d="M45 862l100 572h252l-26 -572h-326zM446 862l101 572h252l-27 -572h-326z" />
<glyph unicode="&#x201d;" horiz-adv-x="860" d="M70 862l26 572h326l-100 -572h-252zM471 862l27 572h325l-100 -572h-252z" />
<glyph unicode="&#x201e;" horiz-adv-x="864" d="M53 -311l29 571h324l-101 -571h-252zM455 -311l28 571h324l-100 -571h-252z" />
<glyph unicode="&#x2022;" horiz-adv-x="710" d="M96 719q0 83 38.5 142t95 84.5t124.5 25.5q107 0 182.5 -64.5t75.5 -187.5t-75.5 -187.5t-182.5 -64.5q-68 0 -124.5 25.5t-95 84.5t-38.5 142z" />
<glyph unicode="&#x2026;" horiz-adv-x="1439" d="M51 158q0 89 54.5 135.5t130.5 46.5q77 0 131.5 -46.5t54.5 -135.5q0 -90 -54.5 -137.5t-131.5 -47.5q-76 0 -130.5 48t-54.5 137zM535 158q0 89 54 135.5t130 46.5q77 0 131.5 -46.5t54.5 -135.5q0 -90 -54.5 -137.5t-131.5 -47.5q-76 0 -130 47.5t-54 137.5zM1018 158 q0 89 54 135.5t130 46.5q78 0 132.5 -46.5t54.5 -135.5q0 -90 -55 -137.5t-132 -47.5q-76 0 -130 47.5t-54 137.5z" />
<glyph unicode="&#x202f;" horiz-adv-x="404" />
<glyph unicode="&#x2039;" horiz-adv-x="624" d="M45 465v53l209 373h326l-228 -399l228 -400h-326z" />
<glyph unicode="&#x203a;" horiz-adv-x="624" d="M47 92l225 400l-225 399h324l211 -373v-53l-211 -373h-324z" />
<glyph unicode="&#x205f;" horiz-adv-x="505" />
<glyph unicode="&#x20ac;" horiz-adv-x="1103" d="M47 487v172h109q-2 8 -2 27q0 33 2 47h-109v172h127q52 247 209 381.5t381 134.5q138 0 258 -49v-342q-80 41 -193 41q-186 0 -258 -166h287v-172h-334q-2 -14 -2 -47v-27h336v-172h-299q63 -168 244 -168q116 0 229 52v-351q-126 -49 -264 -49q-230 0 -390 131t-206 385 h-125z" />
<glyph unicode="&#x2122;" horiz-adv-x="1169" d="M47 1264v170h412v-170h-113v-351h-186v351h-113zM524 913v521h156l123 -209l125 209h155v-521h-172v256l-88 -145h-41l-86 145v-256h-172z" />
<glyph unicode="&#x25fc;" horiz-adv-x="983" d="M0 0v983h983v-983h-983z" />
<glyph unicode="&#xfb01;" horiz-adv-x="1148" d="M35 702v281h121v100q0 93 34.5 166t95 119t139 70t169.5 24q180 0 321 -63v-279q-123 54 -239 54q-184 0 -184 -125v-66h575v-983h-336v702h-239v-702h-336v702h-121z" />
<glyph unicode="&#xfb02;" horiz-adv-x="1163" d="M35 702v281h121v109q0 79 23 143t61.5 105.5t90 69.5t106 40t112.5 12q138 0 250 -47l28 6l254 41v-1462h-336v1145q-59 29 -122 29q-60 0 -95.5 -27t-35.5 -82v-82h139v-281h-139v-702h-336v702h-121z" />
<glyph unicode="&#xfb03;" horiz-adv-x="1738" d="M35 702v281h121v100q0 84 22 150t57 107t84 68t98.5 37.5t104.5 10.5q80 0 158 -33v-274q-41 18 -86 18q-102 0 -102 -96v-88h253v115q0 182 124.5 280.5t314.5 98.5q177 0 321 -64v-278q-121 53 -239 53q-185 0 -185 -125v-80h576v-983h-336v702h-240v-702h-336v702 h-253v-702h-336v702h-121z" />
<glyph unicode="&#xfb04;" horiz-adv-x="1753" d="M35 702v281h121v100q0 84 22 150t57 107t84 68t98.5 37.5t104.5 10.5q80 0 158 -33v-274q-41 18 -86 18q-102 0 -102 -96v-88h253v123q0 98 35 172.5t93 116.5t125 62t141 20q150 0 272 -58l260 43v-1462h-336v1159q-59 29 -123 29q-60 0 -95.5 -27t-35.5 -82v-96h140 v-281h-140v-702h-336v702h-253v-702h-336v702h-121z" />
</font>
</defs>
</svg>
